<?xml version="1.0" encoding="UTF-8"?><svg id="a" xmlns="http://www.w3.org/2000/svg" xmlns:xlink="http://www.w3.org/1999/xlink" viewBox="0 0 299 337"><defs><filter id="b" filterUnits="userSpaceOnUse"><feOffset dx="0" dy="3.0017"/><feGaussianBlur result="c" stdDeviation="5.0028"/><feFlood flood-color="#000" flood-opacity=".75"/><feComposite in2="c" operator="in"/><feComposite in="SourceGraphic"/></filter><filter id="d" filterUnits="userSpaceOnUse"><feOffset dx="0" dy="3.0017"/><feGaussianBlur result="e" stdDeviation="5.0028"/><feFlood flood-color="#000" flood-opacity=".75"/><feComposite in2="e" operator="in"/><feComposite in="SourceGraphic"/></filter></defs><path d="m219.6358,193.9436h-32.1777c-.8797,0-1.7438.232-2.5051.6727l-27.9006,16.1473c-4.6792,2.696-10.4305,2.696-15.0996,0l-28.2858-16.3361,108.3121-57.2038c1.6402-.8663,2.6665-2.5692,2.6665-4.4245v-2.4631c0-5.3918-2.8756-10.3829-7.5447-13.0789l-53.5103-30.9007c-4.2833-2.4735-9.142-3.7757-14.0879-3.7757h-.0001c-4.9459,0-9.8046,1.3022-14.0879,3.7757l-53.5103,30.9007c-4.6792,2.696-7.5548,7.6871-7.5548,13.0789v.4682c0,2.7675,2.243,5.0111,5.0099,5.0111h32.6158c.8788,0,1.7421-.2316,2.5029-.6714l27.4746-15.8824c4.6691-2.6959,10.4204-2.6959,15.0996,0l28.6356,16.5381-.0003.0157-108.6505,56.7251c-1.6519.8624-2.6876,2.5717-2.6876,4.4355v2.7131c0,5.4021,2.8756,10.383,7.5548,13.0789l53.5102,30.9009c4.2834,2.4735,9.142,3.7757,14.0881,3.7757s9.8047-1.3022,14.088-3.7757l53.5102-30.9009c4.6691-2.6959,7.5448-7.6768,7.5448-13.0789v-.7344c0-2.7675-2.243-5.0111-5.0099-5.0111Z" fill="#fff" filter="url(#b)"/><path d="m278.9984,212.9841h-27.095c-2.3144,0-4.2639,1.6041-4.8625,3.8403-1.023,3.8215-3.5172,7.1469-7.0294,9.1684l-18.7268,10.8139-64.2265,37.0919c-4.6793,2.6958-10.4306,2.6958-15.0997,0l-71.4508-41.2611-11.5026-6.6447c-1.8938-1.0823-3.4869-2.5456-4.7193-4.2694-1.8137-2.5256-2.8356-5.5923-2.8356-8.8094v-95.8113c0-5.3919,2.8756-10.3829,7.5549-13.0788l18.7168-10.8139,64.2366-37.0918c4.6691-2.696,10.4204-2.696,15.0997,0l80.18,46.3041c1.6905.9763,3.7943.8797,5.3884-.2472l23.7787-16.8111c2.9802-2.107,2.7744-6.5938-.3862-8.4189L157.0581,14.0252c-1.6031-.922-3.3265-1.5233-5.09-1.8039-3.3969-.5813-6.9337.03-10.0097,1.8039l-90.9191,52.4958-28.4862,16.4564c-4.6692,2.6958-7.5448,7.6869-7.5448,13.0788v137.9042c0,2.8262.7915,5.5522,2.2245,7.8774.2505.421.5209.8118.8115,1.2026,1.2024,1.6036,2.7254,2.9666,4.5089,3.9988l3.6673,2.1147,115.738,66.8374c1.5931.912,3.3164,1.5234,5.07,1.804,3.3967.5812,6.9437-.0301,10.0297-1.804l90.899-52.4958,28.4962-16.4564c4.6691-2.696,7.5549-7.687,7.5549-13.0788v-15.9652c0-2.7675-2.243-5.0111-5.0099-5.0111Z" fill="#fff" filter="url(#d)"/></svg>