<?xml version="1.0" encoding="UTF-8"?><svg id="a" xmlns="http://www.w3.org/2000/svg" xmlns:xlink="http://www.w3.org/1999/xlink" viewBox="0 0 900 900"><defs><filter id="b" filterUnits="userSpaceOnUse"><feOffset dx="0" dy="10.0154"/><feGaussianBlur result="c" stdDeviation="10.0154"/><feFlood flood-color="#000" flood-opacity=".75"/><feComposite in2="c" operator="in"/><feComposite in="SourceGraphic"/></filter><linearGradient id="d" x1="-.0374" y1="-1209.0479" x2="206.7858" y2="-752.6103" gradientTransform="translate(1001.8782 912.0079) rotate(-45)" gradientUnits="userSpaceOnUse"><stop offset="0" stop-color="#ff922d"/><stop offset="1" stop-color="#cb1f9e"/></linearGradient><linearGradient id="e" x1="30.7433" y1="-1226.1554" x2="178.1346" y2="-230.0755" gradientTransform="translate(1001.8782 912.0079) rotate(-45)" gradientUnits="userSpaceOnUse"><stop offset="0" stop-color="#f21b9e"/><stop offset="1" stop-color="#00d6e0"/></linearGradient><linearGradient id="f" x1="-670.0531" y1="-546.9831" x2="240.4449" y2="-1050.9663" gradientTransform="translate(1001.8782 912.0079) rotate(-45)" gradientUnits="userSpaceOnUse"><stop offset="0" stop-color="#f51f9a"/><stop offset="1" stop-color="#512a9b"/></linearGradient><linearGradient id="g" x1="122.9532" y1="-379.6856" x2="-697.2082" y2="-412.9675" gradientTransform="translate(1001.8782 912.0079) rotate(-45)" gradientUnits="userSpaceOnUse"><stop offset="0" stop-color="#a5e275"/><stop offset="1" stop-color="#009cae"/></linearGradient><filter id="h" filterUnits="userSpaceOnUse"><feOffset dx="0" dy="10.0154"/><feGaussianBlur result="i" stdDeviation="10.0154"/><feFlood flood-color="#000" flood-opacity=".75"/><feComposite in2="i" operator="in"/><feComposite in="SourceGraphic"/></filter><linearGradient id="j" x1="197.4701" y1="407.0274" x2="294.9385" y2="687.5463" gradientUnits="userSpaceOnUse"><stop offset="0" stop-color="#ffa43c"/><stop offset="1" stop-color="#f9452f"/></linearGradient><linearGradient id="k" x1="756.1686" y1="490.6318" x2="604.0227" y2="602.3639" gradientUnits="userSpaceOnUse"><stop offset="0" stop-color="#23edf4"/><stop offset="1" stop-color="#136d84"/></linearGradient><linearGradient id="l" x1="451.5173" y1="605.4575" x2="449.1401" y2="778.9989" gradientTransform="matrix(1,0,0,1,0,0)" xlink:href="#f"/><linearGradient id="m" x1="200.6169" y1="221.4693" x2="340.8763" y2="435.4244" xlink:href="#k"/><linearGradient id="n" x1="639.3878" y1="200.9067" x2="634.2149" y2="498.3532" xlink:href="#j"/><filter id="o" filterUnits="userSpaceOnUse"><feOffset dx="0" dy="10.0154"/><feGaussianBlur result="p" stdDeviation="10.0154"/><feFlood flood-color="#000" flood-opacity=".75"/><feComposite in2="p" operator="in"/><feComposite in="SourceGraphic"/></filter><linearGradient id="q" x1="415.1741" y1="363.8044" x2="503.1334" y2="490.5926" gradientTransform="matrix(1,0,0,1,0,0)" xlink:href="#g"/><linearGradient id="r" x1="446.2623" y1="473.9942" x2="476.3745" y2="563.5384" gradientTransform="matrix(1,0,0,1,0,0)" xlink:href="#g"/><linearGradient id="s" x1="458.9154" y1="443.2482" x2="355.5038" y2="520.1135" gradientTransform="matrix(1,0,0,1,0,0)" xlink:href="#g"/><filter id="t" filterUnits="userSpaceOnUse"><feOffset dx="0" dy="10.0154"/><feGaussianBlur result="u" stdDeviation="10.0154"/><feFlood flood-color="#000" flood-opacity=".75"/><feComposite in2="u" operator="in"/><feComposite in="SourceGraphic"/></filter><linearGradient id="v" x1="306.0815" y1="498.6829" x2="630.9757" y2="425.7798" gradientTransform="matrix(1,0,0,1,0,0)" xlink:href="#d"/><linearGradient id="w" x1="354.254" y1="566.0339" x2="470.7407" y2="370.3046" gradientTransform="matrix(1,0,0,1,0,0)" xlink:href="#e"/><linearGradient id="x" x1="481.9238" y1="642.0088" x2="598.4046" y2="446.2893" gradientTransform="matrix(1,0,0,1,0,0)" xlink:href="#e"/></defs><path d="m639.122,99.6221l161.2559,161.2559c4.5608,4.5608,7.5635,10.453,8.5692,16.8267l35.6789,225.2343c1.0056,6.3738-.0284,12.9034-2.9602,18.6539l-103.524,203.1953c-1.466,2.8824-3.371,5.4814-5.623,7.7334l-.1983.1983c-2.2096,2.1672-4.7379,4.0013-7.5282,5.4178l-1.3526.6869-201.8497,102.8441c-5.7505,2.9319-12.2801,3.9659-18.6468,2.9532l-2.3016-.3612-50.6359-8.0168-172.3039-27.2939c-6.3738-1.0056-12.266-4.0083-16.8268-8.5691l-161.2559-161.2559c-4.5608-4.5608-7.5635-10.453-8.5691-16.8268l-35.6718-225.2413c-1.0128-6.3668.0213-12.8962,2.9532-18.6467l103.5309-203.2024c1.4165-2.7903,3.2507-5.3186,5.4178-7.5282l.1983-.1983c2.252-2.252,4.851-4.157,7.7334-5.623l1.6785-.8569,201.5169-102.667c5.7505-2.9319,12.28-3.966,18.6538-2.9603l2.2945.3684,50.6501,8.0166,172.2897,27.2939c6.3737,1.0057,12.2659,4.0085,16.8267,8.5692Z" fill="#1c0035"/><g filter="url(#b)"><path d="m450.0056,63.759v33.2002s-47.5623-7.5352-47.5623-7.5352c-6.3667-1.0127-12.8963.0214-18.6467,2.9532l-180.0516,91.7397-29.4466-9.8157.1982.5949-7.2166-7.2166.1983-.1983c2.252-2.252,4.851-4.157,7.7334-5.623l1.6785-.8569,201.5169-102.667c5.7505-2.9319,12.28-3.966,18.6538-2.9603l2.2945.3684,50.6501,8.0166Z" fill="url(#d)"/><path d="m639.122,99.6221l161.2559,161.2559c4.5608,4.5608,7.5635,10.453,8.5692,16.8267l35.6789,225.2343c1.0056,6.3738-.0284,12.9034-2.9602,18.6539l-103.524,203.1953c-1.466,2.8824-3.371,5.4814-5.623,7.7334l-.1983.1983-7.6414-7.6414.5949.1983-9.5606-28.6961,91.9095-180.3773c2.9319-5.7505,3.9659-12.2801,2.9532-18.6467l-32.3434-204.2079c-1.0056-6.3738-4.0084-12.2518-8.5762-16.8197l-146.1856-146.1856c-4.5608-4.5608-10.4459-7.5706-16.8197-8.5762l-156.6455-24.8082v-33.2002s172.2896,27.2939,172.2896,27.2939c6.3737,1.0057,12.2659,4.0085,16.8267,8.5692Z" fill="url(#e)"/><path d="m167.28,167.6795l7.2166,7.2166,9.6173,28.8519-91.7395,180.0514c-2.9249,5.7435-3.9589,12.2731-2.9532,18.6467l32.3503,204.201c1.0056,6.3738,4.0083,12.266,8.5691,16.8268l146.1856,146.1856c4.5678,4.5678,10.453,7.5635,16.8268,8.5691l156.6528,24.8151v33.2002s-172.3039-27.2939-172.3039-27.2939c-6.3738-1.0056-12.266-4.0083-16.8268-8.5691l-161.2559-161.2559c-4.5608-4.5608-7.5635-10.453-8.5691-16.8268l-35.6718-225.2413c-1.0128-6.3668.0213-12.8962,2.9532-18.6467l103.5309-203.2024c1.4165-2.7903,3.2507-5.3186,5.4178-7.5282Z" fill="url(#f)"/><path d="m724.679,725.0786l7.6414,7.6414c-2.2096,2.1672-4.7379,4.0013-7.5282,5.4178l-1.3526.6869-201.8497,102.8441c-5.7505,2.9319-12.2801,3.9659-18.6468,2.9532l-2.3016-.3612-50.6359-8.0168v-33.2002s47.5483,7.5352,47.5483,7.5352c6.3737,1.0057,12.9032-.0283,18.6467-2.9532l180.3843-91.9166,28.0941,9.3694Z" fill="url(#g)"/></g><g filter="url(#h)"><path d="m332.2519,626.5872l-17.6271,31.0778-20.6217,36.3558-138.8934-240.5596h48.2742c17.8975,0,34.4229,9.5447,43.3666,25.0385l85.5014,148.0875Z" fill="url(#j)"/><path d="m744.896,453.4612l-138.7131,240.2691-20.6217-36.3558-17.6271-31.0777,85.3211-147.7972c8.9437-15.4938,25.4792-25.0385,43.3666-25.0385h48.2742Z" fill="url(#k)"/><path d="m588.7461,703.5855h-277.1459l24.3474-42.9259,4.9276-8.6934c5.3382-9.4043,15.3236-15.2233,26.1402-15.2233h166.3155c10.8166,0,20.792,5.819,26.1301,15.2233l4.9276,8.6934,24.3574,42.9259Z" fill="url(#l)"/><path d="m362.7287,209.1057l-26.661,71.8404c-.681,5.3382-3.4753,10.1755-7.7619,13.4205l-28.9946,22.0039-1.4422,2.4938-66.1516,114.566h-59.8319c-7.7119,0-12.5293-8.3429-8.6733-15.0231l75.0853-130.0399,4.9476-38.7395c1.0216-7.9923,5.218-15.2434,11.6479-20.1209l68.315-39.0501c3.2149-2.4438,7.5716-2.7141,11.067-.6911l23.5362,9.3944c3.4954,2.0231,5.4283,5.9391,4.9175,9.9453Z" fill="url(#m)"/><path d="m728.1302,433.4304h-59.8419l-66.1116-114.5261-.8513-1.4622-30.3767-23.1855c-4.2766-3.265-7.0608-8.1025-7.7319-13.4407l-26.5107-71.8704c-.5008-3.9961,1.4522-7.9122,4.9476-9.9252l23.5963-9.2943c3.4954-2.0131,7.8621-1.7226,11.067.7211l68.2348,39.1601c6.4099,4.8875,10.5863,12.1587,11.5778,20.161l4.6171,36.9167,76.0569,131.7224c3.856,6.6802-.9715,15.0231-8.6733,15.0231Z" fill="url(#n)"/></g><g filter="url(#o)"><path d="m413.8378,420.8282c.1171-.0719.2303-.1486.35-.2175l28.2735-16.3251c4.6671-2.6941,10.4159-2.6941,15.093,0l28.2735,16.3251c.1193.0689.2324.1456.3493.2175h38.9411v-5.4756c0-5.3882-2.8744-10.3759-7.5415-13.0701l-53.4869-30.8799c-4.2815-2.4718-9.1381-3.7732-14.0819-3.7732h-.0001c-4.9438,0-9.8005,1.3013-14.0819,3.7732l-53.4869,30.8799c-4.6771,2.6942-7.5515,7.682-7.5515,13.0701v.4679c0,2.7657,2.242,5.0077,5.0077,5.0077h33.9427Z" fill="url(#q)"/><path d="m520.1106,478.9174h-33.5059c-.2536.1676-.5113.3303-.7767.4835l-28.2735,16.3251c-4.6771,2.6942-10.4259,2.6942-15.093,0l-28.2735-16.3251-39.3004-.4835v5.7416c0,5.3984,2.8744,10.376,7.5515,13.0701l53.487,30.8801c4.2815,2.4719,9.1381,3.7732,14.0819,3.7732s9.8005-1.3013,14.0819-3.7732l53.487-30.8801c4.6671-2.6941,7.5415-7.6717,7.5415-13.0701v-.7339c0-2.7657-2.2421-5.0077-5.0077-5.0077Z" fill="url(#r)"/><polygon points="374.8874 478.9174 486.1772 420.8282 525.1183 420.8282 414.1878 479.401 374.8874 478.9174" fill="url(#s)"/></g><g filter="url(#t)"><path d="m548.4197,548.4228l-90.8596,52.4606c-3.0847,1.7727-6.6302,2.3836-10.0254,1.8028-1.7527-.2805-3.4753-.8914-5.0677-1.8028l-115.6878-66.7926-3.6657-2.1133c-1.7828-1.0316-3.305-2.3936-4.5069-3.9961-.2905-.3906-.5608-.7812-.8112-1.2019-1.4323-2.3236-2.2235-5.0477-2.2235-7.8721v-137.8117c0-5.3883,2.8744-10.376,7.5416-13.0701l28.4738-16.4453,16.1848,16.1849,10.4861,10.4861-18.7087,10.8066c-4.6772,2.6941-7.5516,7.6818-7.5516,13.0701v95.7471c0,3.215,1.0216,6.2797,2.8344,8.8035,1.2319,1.7227,2.8243,3.1849,4.7172,4.2666l11.4976,6.6402,71.4198,41.2334c4.6671,2.6941,10.4159,2.6941,15.0931,0l64.1986-37.067,10.4761,10.4861,16.1849,16.1849Z" fill="url(#v)"/><path d="m584.4552,381.0957v15.6941c0,2.7643-2.2434,5.0077-5.0077,5.0077h-31.4384c-.1201-5.2581-2.9645-10.0955-7.5316-12.7395l-82.9173-47.8736c-4.6772-2.6941-10.4261-2.6941-15.0931,0l-64.2088,37.067-10.4861-10.4861-16.1848-16.1849,90.8796-52.4606c3.0747-1.7727,6.61-2.3837,10.0054-1.8028,1.7627.2805,3.4853.8814,5.0878,1.8028l115.6777,66.7826,3.6657,2.1233c4.6671,2.6941,7.5516,7.6818,7.5516,13.0701Z" fill="url(#w)"/><path d="m584.4552,502.9529v15.9545c0,5.3883-2.8846,10.3759-7.5516,13.0701l-28.4838,16.4453-16.1849-16.1849-10.4761-10.4861,18.7187-10.8066c4.6473-2.6741,7.5115-7.6317,7.5416-13h31.4284c2.7643,0,5.0077,2.2434,5.0077,5.0077Z" fill="url(#x)"/></g><g opacity=".2"><path d="m337.6758,395.1372v109.7286c0,3.6857,1.1718,7.2011,3.255,10.0955,1.4123,1.9731,3.235,3.6456,5.3984,4.8875l13.1802,7.6117,81.8558,47.2527c5.3483,3.0947,11.9384,3.0947,17.2966,0l73.573-42.4753,21.463-12.389c5.3181-3.0647,8.6032-8.7434,8.6433-14.9029h22.1141v13.9615c0,5.3883-2.8846,10.3759-7.5516,13.0701l-28.4838,16.4453-90.8596,52.4606c-3.0847,1.7727-6.6302,2.3836-10.0254,1.8028-1.7527-.2805-3.4753-.8914-5.0677-1.8028l-115.6878-66.7926-3.6657-2.1133c-1.7828-1.0316-3.305-2.3936-4.5069-3.9961-.2905-.3906-.5608-.7812-.8112-1.2019-1.4323-2.3236-2.2235-5.0477-2.2235-7.8721v-137.8117c0-5.3883,2.8744-10.376,7.5416-13.0701l28.4738-16.4453,90.8796-52.4606c3.0747-1.7727,6.61-2.3837,10.0054-1.8028,1.7627.2805,3.4853.8814,5.0878,1.8028l115.6777,66.7826,3.6657,2.1233c4.6671,2.6941,7.5516,7.6818,7.5516,13.0701v13.6609h-22.1341c-.1302-6.0292-3.3951-11.5678-8.6232-14.6024l-95.036-54.8643c-5.3582-3.0947-11.9483-3.0947-17.2966,0l-73.5931,42.4753-21.4429,12.389c-5.3583,3.0847-8.6534,8.8035-8.6534,14.983Z" fill="#1e1e1e"/><path d="m332.249,626.5843l-17.6271,31.0778-117.9012-204.2038h6.6603c17.8975,0,34.4229,9.5447,43.3666,25.0385l85.5014,148.0875Z" fill="#1e1e1e"/><path d="m703.2791,453.4583l-117.7209,203.9133-17.6271-31.0777,85.3211-147.7972c8.9437-15.4938,25.4792-25.0385,43.3666-25.0385h6.6603Z" fill="#1e1e1e"/><polygon points="588.7431 703.5826 311.5973 703.5826 335.9447 660.6567 564.3857 660.6567 588.7431 703.5826" fill="#1e1e1e"/><path d="m297.8662,318.8615l-66.1516,114.566h-27.5122l66.9629-115.9281c5.7488,5.0779,15.8444,4.4367,26.701,1.3621Z" fill="#1e1e1e"/><path d="m695.6774,433.4275h-27.3921l-66.1116-114.5261c10.7966,3.0347,20.822,3.6457,26.5408-1.4021l66.9629,115.9281Z" fill="#1e1e1e"/></g></svg>